<svg width="34" height="34" viewBox="0 0 34 34" fill="none" xmlns="http://www.w3.org/2000/svg">
<path d="M20.625 33.2917C20.125 33.4028 19.6878 33.2983 19.3133 32.9783C18.9378 32.6595 18.75 32.2222 18.75 31.6667C18.75 31.2778 18.8822 30.9239 19.1467 30.605C19.41 30.285 19.7361 30.0695 20.125 29.9583C20.8194 29.7917 21.4933 29.5761 22.1467 29.3117C22.7989 29.0483 23.4306 28.7222 24.0417 28.3333C24.4028 28.1111 24.7989 28.0211 25.23 28.0634C25.66 28.1045 26.0139 28.2639 26.2917 28.5417C26.6806 28.9306 26.8544 29.375 26.8133 29.875C26.7711 30.375 26.5278 30.7639 26.0833 31.0417C25.2222 31.5972 24.3406 32.0556 23.4383 32.4167C22.535 32.7778 21.5972 33.0695 20.625 33.2917ZM28.6667 26.1667C28.3889 25.8889 28.2289 25.5417 28.1867 25.125C28.1456 24.7083 28.2361 24.3334 28.4583 24C28.8194 23.3889 29.1389 22.7639 29.4167 22.125C29.6944 21.4861 29.9167 20.8056 30.0833 20.0833C30.1944 19.6945 30.4167 19.3611 30.75 19.0833C31.0833 18.8056 31.4444 18.6667 31.8333 18.6667C32.3889 18.6667 32.8267 18.8611 33.1467 19.25C33.4656 19.6389 33.5556 20.0833 33.4167 20.5833C33.1944 21.5833 32.8956 22.535 32.52 23.4383C32.1456 24.3406 31.6806 25.1945 31.125 26C30.8472 26.4167 30.4656 26.6456 29.98 26.6867C29.4933 26.7289 29.0556 26.5556 28.6667 26.1667ZM31.7917 15.3333C31.4028 15.3333 31.0489 15.1945 30.73 14.9167C30.41 14.6389 30.1944 14.3056 30.0833 13.9167C29.9167 13.1945 29.6944 12.5067 29.4167 11.8533C29.1389 11.2011 28.8194 10.5833 28.4583 10C28.2361 9.66668 28.1456 9.29168 28.1867 8.87502C28.2289 8.45835 28.3889 8.11113 28.6667 7.83335C29.0556 7.44446 29.4933 7.26391 29.98 7.29168C30.4656 7.31946 30.8472 7.54168 31.125 7.95835C31.6806 8.7639 32.1528 9.63168 32.5417 10.5617C32.9306 11.4928 33.2361 12.4445 33.4583 13.4167C33.5694 13.9167 33.4583 14.3611 33.125 14.75C32.7917 15.1389 32.3472 15.3333 31.7917 15.3333ZM13.5833 33.25C9.77778 32.3611 6.64556 30.4167 4.18667 27.4167C1.72889 24.4167 0.5 20.9445 0.5 17C0.5 13.0278 1.72222 9.52779 4.16667 6.50002C6.61111 3.47224 9.73611 1.54168 13.5417 0.70835C14.0417 0.597238 14.4794 0.701127 14.855 1.02002C15.2294 1.34002 15.4167 1.76391 15.4167 2.29168C15.4167 2.68057 15.2844 3.03446 15.02 3.35335C14.7567 3.67335 14.4306 3.8889 14.0417 4.00002C11.0694 4.72224 8.625 6.29168 6.70833 8.70835C4.79167 11.125 3.83333 13.8889 3.83333 17C3.83333 20.1111 4.79167 22.8545 6.70833 25.23C8.625 27.6045 11.0694 29.1806 14.0417 29.9583C14.4306 30.0695 14.7567 30.2917 15.02 30.625C15.2844 30.9583 15.4167 31.3195 15.4167 31.7084C15.4167 32.2361 15.2361 32.6528 14.875 32.9584C14.5139 33.2639 14.0833 33.3611 13.5833 33.25ZM24.1667 5.70835C23.5278 5.31946 22.875 4.9789 22.2083 4.68668C21.5417 4.39557 20.8611 4.16668 20.1667 4.00002C19.7778 3.8889 19.4444 3.67335 19.1667 3.35335C18.8889 3.03446 18.75 2.68057 18.75 2.29168C18.75 1.76391 18.9378 1.34002 19.3133 1.02002C19.6878 0.701127 20.125 0.597238 20.625 0.70835C21.5972 0.930572 22.5417 1.22224 23.4583 1.58335C24.375 1.94446 25.2639 2.40279 26.125 2.95835C26.5694 3.23613 26.8128 3.62502 26.855 4.12502C26.8961 4.62502 26.7222 5.06946 26.3333 5.45835C26.0556 5.73613 25.7156 5.90279 25.3133 5.95835C24.91 6.01391 24.5278 5.93057 24.1667 5.70835ZM17.125 24.75C16.9028 24.75 16.6944 24.715 16.5 24.645C16.3056 24.5761 16.125 24.4722 15.9583 24.3333C14.125 22.6389 12.75 21.0556 11.8333 19.5833C10.9167 18.1111 10.4583 16.75 10.4583 15.5C10.4583 13.4167 11.1322 11.7572 12.48 10.5217C13.8267 9.28502 15.375 8.66668 17.125 8.66668C18.875 8.66668 20.4239 9.28502 21.7717 10.5217C23.1183 11.7572 23.7917 13.4167 23.7917 15.5C23.7917 16.75 23.3333 18.1111 22.4167 19.5833C21.5 21.0556 20.125 22.6389 18.2917 24.3333C18.125 24.4722 17.9444 24.5761 17.75 24.645C17.5556 24.715 17.3472 24.75 17.125 24.75ZM17.125 17C17.625 17 18.0489 16.8267 18.3967 16.48C18.7433 16.1322 18.9167 15.7083 18.9167 15.2083C18.9167 14.7361 18.7433 14.3195 18.3967 13.9584C18.0489 13.5972 17.625 13.4167 17.125 13.4167C16.625 13.4167 16.2011 13.5972 15.8533 13.9584C15.5067 14.3195 15.3333 14.7361 15.3333 15.2083C15.3333 15.7083 15.5067 16.1322 15.8533 16.48C16.2011 16.8267 16.625 17 17.125 17Z" fill="#F0EBE7"/>
</svg>
